<svg xmlns="http://www.w3.org/2000/svg" width="57.795" height="41.989" viewBox="0 0 57.795 41.989"><defs><style>.a{fill:#fff;}</style></defs><path class="a" d="M252.795,231.548a16.387,16.387,0,0,0-28.9-10.584A16.387,16.387,0,0,0,195,231.548c0,.058,0,.116,0,.173h0V257.15h7.76V245.483a16.394,16.394,0,0,0,21.137-3.351,16.394,16.394,0,0,0,21.137,3.351V257.15h7.76V231.721h0C252.795,231.663,252.795,231.605,252.795,231.548ZM217.5,238.715l1.588,1.588c-2.541,1.271-4.252.466-5.252-.456a8.656,8.656,0,0,1-10.422-11.834l-1.8-3.593,4.054.579a8.619,8.619,0,0,1,5.635-2.088,8.737,8.737,0,0,1,1.107.07,8.632,8.632,0,0,1,7.056,11.584,10.28,10.28,0,0,0,4.067.019C223.219,239.033,217.5,238.715,217.5,238.715Zm18.907,1.459a8.626,8.626,0,1,1,8.626-8.626A8.626,8.626,0,0,1,236.408,240.174Z" transform="translate(-195 -215.161)"/></svg>